<?xml version="1.0" encoding="iso-8859-1"?>
<!-- Uploaded to: SVG Repo, www.svgrepo.com, Generator: SVG Repo Mixer Tools -->
<svg version="1.1" id="Layer_1" xmlns="http://www.w3.org/2000/svg" xmlns:xlink="http://www.w3.org/1999/xlink" 
	 viewBox="0 0 512 512" xml:space="preserve">
<circle style="fill:#84DCCF;" cx="256.094" cy="207.198" r="16.051"/>
<polygon style="fill:#027EA8;" points="312.276,503.624 271.182,263.381 271.182,239.771 240.818,239.771 240.818,263.381 
	199.918,503.624 "/>
<g>
	<polygon style="fill:#FBA218;" points="304.251,455.995 207.943,455.995 215.969,407.841 296.225,407.841 	"/>
	<polygon style="fill:#FBA218;" points="288.199,359.688 223.994,359.688 232.02,311.534 280.173,311.534 	"/>
	<rect x="240.043" y="239.3" style="fill:#FBA218;" width="32.102" height="24.077"/>
</g>
<rect x="248.147" y="159.149" style="fill:#F14507;" width="15.706" height="16.753"/>
<rect x="224.065" y="125.644" style="fill:#84DCCF;" width="63.869" height="15.706"/>
<rect x="198.937" y="94.233" style="fill:#F14507;" width="114.127" height="15.706"/>
<rect x="167.526" y="62.822" style="fill:#84DCCF;" width="176.949" height="15.706"/>
<rect x="120.409" y="29.317" style="fill:#F14507;" width="271.182" height="15.706"/>
<rect x="55.493" style="fill:#84DCCF;" width="401.014" height="15.706"/>
<path d="M318.447,496.294l-38.889-233.563v-14.584h8.376v-15.706h-24.082v-2.452c9.481-3.236,16.32-12.225,16.32-22.788
	c0-13.276-10.8-24.077-24.077-24.077c-13.276,0-24.077,10.8-24.077,24.077c0,10.491,6.747,19.431,16.127,22.722v2.518h-24.082
	v15.706h9.423v14.584L194.6,496.294h-27.074V512h176.949v-15.706H318.447z M278.642,352.851h-44.237l5.579-33.505h33.079
	L278.642,352.851z M281.257,368.556l5.405,32.458h-60.276l5.405-32.458H281.257z M289.277,416.72l5.405,32.458h-76.315l5.405-32.458
	H289.277z M248.071,207.202c0-4.426,3.601-8.026,8.026-8.026c4.426,0,8.026,3.601,8.026,8.026c0,4.426-3.601,8.026-8.026,8.026
	C251.672,215.227,248.071,211.627,248.071,207.202z M263.853,248.147v7.329h-14.658v-7.329H263.853z M265.043,271.182l5.405,32.458
	h-27.849l5.405-32.458H265.043z M215.751,464.883h81.545l5.23,31.411h-92.005L215.751,464.883z"/>
</svg>